<svg xmlns="http://www.w3.org/2000/svg" viewBox="0 0 1080 1920">
  <defs>
    <linearGradient id="bg1" x1="0" y1="0" x2="0" y2="1">
      <stop offset="0%" stop-color="#11131a"/>
      <stop offset="100%" stop-color="#272c39"/>
    </linearGradient>
    <linearGradient id="avatar1" x1="0" y1="0" x2="1" y2="1">
      <stop offset="0%" stop-color="#f9c58d"/>
      <stop offset="100%" stop-color="#c57a3a"/>
    </linearGradient>
  </defs>
  <rect width="1080" height="1920" fill="url(#bg1)"/>
  <rect x="40" y="40" width="1000" height="1840" rx="70" fill="#0a0c12" stroke="#ffffff1f" stroke-width="3"/>

  <circle cx="540" cy="330" r="145" fill="url(#avatar1)"/>
  <circle cx="540" cy="322" r="104" fill="#2b1a0f"/>
  <text x="540" y="700" text-anchor="middle" fill="#ffffff" font-size="74" font-family="Arial" font-weight="700">João Dahan</text>
  <text x="540" y="760" text-anchor="middle" fill="#c8cedd" font-size="34" font-family="Arial">Desenvolvedor Web • UI/UX</text>

  <g font-family="Arial" font-size="34" fill="#fff" font-weight="700">
    <rect x="145" y="860" width="790" height="116" rx="58" fill="#8d4dff"/>
    <text x="540" y="932" text-anchor="middle">🌐 Ver Portfólio Completo</text>

    <rect x="145" y="1010" width="790" height="116" rx="58" fill="#22b573"/>
    <text x="540" y="1082" text-anchor="middle">💬 Falar no WhatsApp</text>

    <rect x="145" y="1160" width="790" height="116" rx="58" fill="#2f3645"/>
    <text x="540" y="1232" text-anchor="middle">📄 Solicitar Orçamento</text>

    <rect x="145" y="1310" width="790" height="116" rx="58" fill="#2f3645"/>
    <text x="540" y="1382" text-anchor="middle">🎬 Projetos CEMU</text>

    <rect x="145" y="1460" width="790" height="116" rx="58" fill="#2f3645"/>
    <text x="540" y="1532" text-anchor="middle">📸 Instagram</text>
  </g>

  <text x="540" y="1735" text-anchor="middle" fill="#95a0b9" font-size="26" font-family="Arial">linkinbio.dahandev.site</text>
</svg>
